<svg xmlns="https://www.w3.org/2000/svg" viewBox="0 0 59.896 58.246">
	<title>icon</title>
	<path
		d="M58.448,8.534H44.115V3.377a1.5,1.5,0,0,0-3,0V8.534H20.885V3.377a1.5,1.5,0,0,0-3,0V8.534H3.552a2.5,2.5,0,0,0-2.5,2.5V57.623a2.5,2.5,0,0,0,2.5,2.5h54.9a2.5,2.5,0,0,0,2.5-2.5V11.034A2.5,2.5,0,0,0,58.448,8.534Zm-0.5,18.253V57.123H4.052V26.787h53.9Zm-38.563-8.6a1.5,1.5,0,0,0,1.5-1.5V11.534h20.23v5.157a1.5,1.5,0,0,0,3,0V11.534H57.948V23.787H4.052V11.534H17.885v5.157A1.5,1.5,0,0,0,19.385,18.191Z"
		transform="translate(-1.052 -1.877)" style="fill: #0081c2"/>
	<path
		d="M23.314,36.419L21.393,34.5a1.359,1.359,0,0,0-1.921,1.921l1.921,1.921A1.359,1.359,0,0,0,23.314,36.419Zm22.632,8.249H43.229a1.359,1.359,0,0,0,0,2.718h2.717A1.359,1.359,0,0,0,45.946,44.668Zm-27.174,0H16.054a1.359,1.359,0,0,0,0,2.718h2.718A1.359,1.359,0,0,0,18.772,44.668Zm19.022,6.794H24.206a1.359,1.359,0,0,0,0,2.717H37.794A1.359,1.359,0,1,0,37.794,51.462ZM42.529,34.5a1.36,1.36,0,0,0-1.921,0l-1.921,1.921a1.359,1.359,0,0,0,1.921,1.921l1.921-1.921A1.36,1.36,0,0,0,42.529,34.5ZM31,35.157A1.359,1.359,0,0,0,32.359,33.8V31.081a1.359,1.359,0,1,0-2.717,0V33.8A1.359,1.359,0,0,0,31,35.157Zm0,2.718a8.134,8.134,0,0,0-7.679,10.869H26.3a5.435,5.435,0,1,1,9.4,0h2.977A8.134,8.134,0,0,0,31,37.875Zm0,11.039a0.679,0.679,0,0,0,.679-0.679v-2.6L33.4,47.356a0.679,0.679,0,0,0,.961-0.961l-2.882-2.882a0.679,0.679,0,0,0-.961,0L27.638,46.4a0.679,0.679,0,0,0,.961.961l1.722-1.722v2.6A0.679,0.679,0,0,0,31,48.914Z"
		transform="translate(-1.052 -1.877)" style="fill: #0081c2"/>
</svg>
